# Blender v3.5.0 OBJ File: ''
# www.blender.org
mtllib Goal.mtl
o 円_円.003
v 0.365535 0.115133 -0.833618
v -0.393211 0.115133 -1.519332
v -0.577509 0.115133 -0.513383
v -1.464127 0.115133 -0.003670
v -0.564365 0.115133 0.482463
v -0.353579 0.115133 1.483197
v 0.386803 0.115133 0.777695
v 1.403694 0.115133 0.886470
v 0.961513 0.115133 -0.035688
v 1.379200 0.115133 -0.969195
vt 0.000000 0.000000
vt 0.000000 0.000000
vt 0.000000 0.000000
vt 0.000000 0.000000
vt 0.000000 0.000000
vt 0.000000 0.000000
vt 0.000000 0.000000
vt 0.000000 0.000000
vt 0.000000 0.000000
vt 0.000000 0.000000
vn 0.0000 1.0000 0.0000
usemtl マテリアル
s off
f 5/1/1 9/2/1 1/3/1
f 1/3/1 2/4/1 3/5/1
f 3/5/1 4/6/1 5/1/1
f 5/1/1 6/7/1 7/8/1
f 7/8/1 8/9/1 9/2/1
f 9/2/1 10/10/1 1/3/1
f 1/3/1 3/5/1 5/1/1
f 5/1/1 7/8/1 9/2/1
