{
	"asset":{
		"version":"2.0",
		"generator":"Houdini GLTF 2.0 Exporter"
	},
	"accessors":[
		{
			"bufferView":0,
			"componentType":5123,
			"count":5004,
			"type":"SCALAR",
			"min":[0
			],
			"max":[1715
			]
		},
		{
			"bufferView":1,
			"componentType":5126,
			"count":1716,
			"type":"VEC3",
			"min":[-0.5,1.5,-0.5
			],
			"max":[0.5,2.5,0.5
			]
		},
		{
			"bufferView":2,
			"componentType":5126,
			"count":1716,
			"type":"VEC3",
			"min":[0,0,0
			],
			"max":[0,0,0
			]
		},
		{
			"bufferView":3,
			"componentType":5126,
			"count":1716,
			"type":"VEC3",
			"min":[-1,-1,-1
			],
			"max":[1,1,1
			]
		}
	],
	"buffers":[
		{
			"uri":"vatSphere_data.bin",
			"byteLength":71784,
			"name":"main_buffer"
		}
	],
	"bufferViews":[
		{
			"buffer":0,
			"byteLength":10008,
			"target":34963
		},
		{
			"buffer":0,
			"byteOffset":10008,
			"byteLength":20592,
			"target":34962
		},
		{
			"buffer":0,
			"byteOffset":30600,
			"byteLength":20592,
			"target":34962
		},
		{
			"buffer":0,
			"byteOffset":51192,
			"byteLength":20592,
			"target":34962
		}
	],
	"nodes":[
		{
			"name":"sphere_object1_fracture",
			"mesh":0
		}
	],
	"meshes":[
		{
			"primitives":[
				{
					"attributes":{
						"NORMAL":3,
						"_v":2,
						"POSITION":1
					},
					"indices":0
				}
			],
			"name":"OUT_VAT"
		}
	],
	"scenes":[
		{
			"nodes":[0
			]
		}
	],
	"scene":0
}
