# Blender v3.5.0 OBJ File: ''
# www.blender.org
mtllib GoalStar.mtl
o 円.001
v 1.166079 -0.082205 -0.033864
v 0.866387 -0.082205 -0.006462
v 1.296233 -0.082205 -0.893644
v -0.635539 -0.082205 0.576225
v -1.774653 -0.082205 0.002467
v -1.406580 -0.082205 0.021619
v 1.166079 0.314817 -0.033864
v 0.866387 0.314817 -0.006462
v 1.318021 0.314817 0.869829
v -0.650062 0.314817 -0.599256
v -1.774653 0.314817 0.002467
v -1.406580 0.314817 0.021619
v -0.650062 -0.082205 -0.599256
v -0.456393 0.314817 -1.859918
v -0.456393 -0.082205 -1.859918
v 1.722208 -0.082205 -1.181688
v 0.486897 -0.082205 0.925656
v -0.410783 0.314817 1.831718
v -0.410783 -0.082205 1.831718
v 0.463400 -0.082205 -0.976312
v 1.722208 0.314817 -1.181688
v 1.750396 -0.082205 1.099870
v 0.486897 0.314817 0.925656
v 0.463400 0.314817 -0.976312
v 1.750396 0.314817 1.099870
v -0.635539 0.314817 0.576225
v -0.519658 -0.082205 -0.558660
v -0.387662 -0.082205 -1.417866
v -0.387662 0.161366 -1.417866
v 0.866387 0.161366 -0.006462
v 1.296233 0.161366 -0.893644
v -0.352410 -0.082205 1.435493
v 0.341430 0.161366 0.735175
v 0.341430 -0.082205 0.735175
v -0.537354 0.161366 -0.443469
v -1.406580 0.161366 0.021619
v 0.323268 -0.082205 -0.734904
v 0.323268 0.161366 -0.734904
v 1.318021 0.161366 0.869829
v 1.318021 -0.082205 0.869829
v -0.526129 -0.082205 0.465090
v -0.526129 0.161366 0.465090
v -0.513625 -0.082205 0.534940
v -0.526129 0.161366 0.465090
v -0.387662 0.161366 -1.417867
v 1.318021 0.161366 0.869829
v -0.387662 0.314817 -1.417867
v -0.505923 0.314817 -0.648067
v 0.866387 0.161366 -0.006462
v 1.296233 0.314817 -0.893644
v 1.296233 0.161366 -0.893644
v -0.352410 0.161366 1.435493
v 0.341430 0.314817 0.735175
v 0.341430 0.161366 0.735175
v -1.406580 0.161366 0.021619
v -0.537354 0.314817 -0.443469
v 0.323268 0.161366 -0.734904
v 0.323268 0.314817 -0.734904
v -0.526129 0.161366 0.465090
v -0.526129 0.314817 0.465090
v -0.498602 0.314817 0.618854
v -0.537354 -0.082205 -0.443469
v -0.352410 0.314817 1.435493
v 0.866387 0.161366 -0.006462
v -0.352410 0.161366 1.435493
v -0.537354 0.161366 -0.443469
vt 0.000000 0.000000
vt 0.000000 0.000000
vt 0.000000 0.000000
vt 0.000000 0.000000
vt 0.000000 0.000000
vt 0.000000 0.000000
vt 0.000000 0.000000
vt 0.000000 0.000000
vt 0.000000 0.000000
vt 0.000000 0.000000
vt 0.000000 0.000000
vt 0.000000 0.000000
vt 0.000000 0.000000
vt 0.000000 0.000000
vt 0.000000 0.000000
vt 0.000000 0.000000
vt 0.000000 0.000000
vt 0.000000 0.000000
vt 0.000000 0.000000
vt 0.000000 0.000000
vt 0.000000 0.000000
vt 0.000000 0.000000
vt 0.000000 0.000000
vt 0.000000 0.000000
vt 0.000000 0.000000
vt 0.000000 0.000000
vt 0.000000 0.000000
vt 0.000000 0.000000
vt 0.000000 0.000000
vt 0.000000 0.000000
vt 0.000000 0.000000
vt 0.000000 0.000000
vt 0.000000 0.000000
vt 0.000000 0.000000
vt 0.000000 0.000000
vt 0.000000 0.000000
vt 0.000000 0.000000
vt 0.000000 0.000000
vt 0.000000 0.000000
vt 0.000000 0.000000
vt 0.000000 0.000000
vt 0.000000 0.000000
vt 0.000000 0.000000
vt 0.000000 0.000000
vt 0.000000 0.000000
vt 0.000000 0.000000
vt 0.000000 0.000000
vt 0.000000 0.000000
vt 0.000000 0.000000
vt 0.000000 0.000000
vt 0.000000 0.000000
vt 0.000000 0.000000
vt 0.000000 0.000000
vt 0.000000 0.000000
vt 0.000000 0.000000
vt 0.000000 0.000000
vt 0.000000 0.000000
vt 0.000000 0.000000
vt 0.000000 0.000000
vt 0.000000 0.000000
vt 0.000000 0.000000
vt 0.000000 0.000000
vt 0.000000 0.000000
vt 0.000000 0.000000
vt 0.000000 0.000000
vt 0.000000 0.000000
vn 0.0000 -1.0000 0.0000
vn -0.0000 1.0000 -0.0000
vn -0.9884 0.0000 -0.1518
vn 0.8999 0.0000 0.4360
vn 0.7104 0.0000 0.7038
vn -0.4718 0.0000 -0.8817
vn -0.1610 -0.0000 -0.9870
vn -0.1366 0.0000 0.9906
vn -0.4498 0.0000 0.8931
vn 0.6928 0.0000 -0.7211
vn 0.8889 0.0000 -0.4581
vn -0.9844 0.0000 0.1762
vn 0.9884 0.0000 0.1518
vn -0.8999 0.0000 -0.4360
vn -0.7104 0.0000 -0.7038
vn 0.4718 0.0000 0.8817
vn 0.1610 0.0000 0.9870
vn 0.1366 0.0000 -0.9906
vn 0.4498 0.0000 -0.8931
vn -0.6928 0.0000 0.7211
vn -0.8889 0.0000 0.4581
vn 0.9844 -0.0000 -0.1762
vn -0.0014 0.9889 -0.1484
vn 0.0000 1.0000 -0.0039
vn -0.0002 1.0000 -0.0036
vn 0.0000 0.0000 0.1418
vn -0.0000 0.9899 0.1418
vn -0.0000 0.9562 -0.2928
vn 0.0000 0.0000 1.0000
vn 1.0000 -0.0000 -0.0000
vn 0.0000 0.0000 -0.0000
vn -0.0000 0.9887 0.1501
vn -0.0000 0.9766 -0.2152
vn 0.0000 0.0000 0.1501
vn 0.0000 0.9506 0.3103
vn 0.0000 0.0000 -0.1545
vn -0.0000 0.9880 -0.1545
vn 0.0000 0.9567 0.2912
vn -0.0000 0.9651 -0.2620
vn 0.3105 0.0000 0.9506
vn 0.3208 0.0000 0.9472
vn 0.2425 -0.0000 0.9701
vn 0.0000 0.0000 -0.1209
vn -0.0000 -0.9687 -0.2482
vn 0.0000 0.0000 0.1121
vn 0.0000 -0.9937 0.1121
vn 0.0000 -0.9853 0.1706
vn 0.0000 0.0000 -0.1414
vn 0.0000 -0.9900 -0.1414
vn 0.0000 0.0000 -0.1418
vn -0.0000 0.9899 -0.1418
vn 0.0000 0.9561 0.2930
vn -0.0000 -0.9684 -0.2495
vn 0.0000 0.0000 0.1550
vn 0.0000 -0.9879 0.1550
usemtl (null)
s 1
f 1/1/1 2/2/1 3/3/1
f 4/4/1 5/5/1 6/6/1
f 7/7/2 8/8/2 9/9/2
f 10/10/2 11/11/2 12/12/2
f 13/13/3 14/14/3 15/15/3
f 16/16/4 7/7/4 1/1/4
f 17/17/5 18/18/5 19/19/5
f 5/5/6 10/10/6 13/13/6
f 20/20/7 21/21/7 16/16/7
f 22/22/8 23/23/8 17/17/8
f 4/4/9 11/11/9 5/5/9
f 15/15/10 24/24/10 20/20/10
f 1/1/11 25/25/11 22/22/11
f 19/19/12 26/26/12 4/4/12
f 27/27/13 28/28/13 29/29/13
f 2/2/14 30/30/14 31/31/14
f 32/32/15 33/33/15 34/34/15
f 6/6/16 35/35/16 36/36/16
f 37/37/17 31/31/17 38/38/17
f 34/34/18 39/39/18 40/40/18
f 41/41/19 36/36/19 42/42/19
f 37/37/20 29/29/20 28/28/20
f 2/2/21 39/39/21 30/30/21
f 43/43/22 41/41/22 44/44/22
f 35/35/23 29/29/24 45/45/25
f 46/46/26 39/39/27 33/33/28
f 45/45/13 47/47/13 48/48/13
f 49/49/14 50/50/14 51/51/14
f 52/52/15 53/53/15 54/54/15
f 55/55/16 56/56/16 12/12/16
f 57/57/17 50/50/17 58/58/17
f 54/54/18 9/9/18 46/46/18
f 59/59/19 12/12/19 60/60/19
f 45/45/20 58/58/20 47/47/20
f 46/46/21 8/8/21 49/49/21
f 59/59/22 60/60/22 61/61/22
f 28/28/1 27/27/1 13/13/1
f 19/19/1 4/4/1 32/32/1
f 4/4/1 43/43/1 32/32/1
f 17/17/1 19/19/1 32/32/1
f 28/28/1 13/13/1 15/15/1
f 28/28/1 15/15/1 20/20/1
f 17/17/1 32/32/1 34/34/1
f 37/37/1 28/28/1 20/20/1
f 3/3/1 37/37/1 20/20/1
f 22/22/1 17/17/1 40/40/1
f 17/17/1 34/34/1 40/40/1
f 1/1/1 22/22/1 40/40/1
f 3/3/1 20/20/1 16/16/1
f 1/1/1 40/40/1 2/2/1
f 3/3/1 16/16/1 1/1/1
f 41/41/1 43/43/1 4/4/1
f 5/5/1 13/13/1 6/6/1
f 13/13/1 27/27/1 62/62/1
f 6/6/1 13/13/1 62/62/1
f 6/6/1 41/41/1 4/4/1
f 63/63/2 61/61/2 26/26/2
f 14/14/2 10/10/2 47/47/2
f 10/10/2 48/48/2 47/47/2
f 24/24/2 14/14/2 47/47/2
f 63/63/2 26/26/2 18/18/2
f 63/63/2 18/18/2 23/23/2
f 24/24/2 47/47/2 58/58/2
f 53/53/2 63/63/2 23/23/2
f 9/9/2 53/53/2 23/23/2
f 21/21/2 24/24/2 50/50/2
f 24/24/2 58/58/2 50/50/2
f 7/7/2 21/21/2 50/50/2
f 9/9/2 23/23/2 25/25/2
f 7/7/2 50/50/2 8/8/2
f 9/9/2 25/25/2 7/7/2
f 56/56/2 48/48/2 10/10/2
f 11/11/2 26/26/2 12/12/2
f 26/26/2 61/61/2 60/60/2
f 12/12/2 26/26/2 60/60/2
f 12/12/2 56/56/2 10/10/2
f 13/13/3 10/10/3 14/14/3
f 16/16/4 21/21/4 7/7/4
f 17/17/5 23/23/5 18/18/5
f 5/5/6 11/11/6 10/10/6
f 20/20/7 24/24/7 21/21/7
f 22/22/8 25/25/8 23/23/8
f 4/4/9 26/26/9 11/11/9
f 15/15/10 14/14/10 24/24/10
f 1/1/11 7/7/11 25/25/11
f 19/19/12 18/18/12 26/26/12
f 29/29/13 35/35/13 27/27/13
f 35/35/13 62/62/13 27/27/13
f 31/31/14 3/3/14 2/2/14
f 30/30/29 64/64/29 31/31/29
f 32/32/15 65/65/15 33/33/15
f 6/6/16 62/62/16 35/35/16
f 37/37/17 3/3/17 31/31/17
f 34/34/18 33/33/18 39/39/18
f 41/41/19 6/6/19 36/36/19
f 37/37/20 38/38/20 29/29/20
f 2/2/21 40/40/21 39/39/21
f 65/65/22 32/32/22 43/43/22
f 41/41/30 42/42/31 44/44/30
f 44/44/22 65/65/22 43/43/22
f 31/31/32 64/64/33 51/51/34
f 64/64/29 49/49/29 51/51/29
f 55/55/29 59/59/29 36/36/29
f 59/59/29 44/44/29 36/36/29
f 44/44/29 42/42/29 36/36/29
f 66/66/35 55/55/36 36/36/37
f 38/38/2 31/31/38 57/57/2
f 31/31/29 51/51/29 57/57/29
f 29/29/39 38/38/2 57/57/2
f 66/66/29 36/36/29 35/35/29
f 29/29/40 57/57/41 45/45/42
f 66/66/43 35/35/23 45/45/25
f 44/44/29 59/59/29 52/52/29
f 65/65/29 44/44/29 52/52/29
f 64/64/29 30/30/29 46/46/29
f 30/30/44 39/39/45 46/46/46
f 46/46/47 49/49/48 64/64/49
f 65/65/50 52/52/51 33/33/52
f 52/52/53 54/54/54 33/33/55
f 54/54/29 46/46/29 33/33/29
f 48/48/13 56/56/13 66/66/13
f 66/66/13 45/45/13 48/48/13
f 49/49/14 8/8/14 50/50/14
f 52/52/15 63/63/15 53/53/15
f 55/55/16 66/66/16 56/56/16
f 57/57/17 51/51/17 50/50/17
f 54/54/18 53/53/18 9/9/18
f 59/59/19 55/55/19 12/12/19
f 45/45/20 57/57/20 58/58/20
f 46/46/21 9/9/21 8/8/21
f 61/61/22 63/63/22 52/52/22
f 52/52/22 59/59/22 61/61/22
