# Blender 4.1.1
# www.blender.org
mtllib tree.mtl
o Tree1
v 0.000000 -0.999867 -1.000284
v 0.025605 -0.779801 -0.617874
v 0.587952 -0.999867 -0.809247
v 0.388779 -0.779678 -0.499869
v 0.951327 -0.999867 -0.309105
v 0.613233 -0.779602 -0.190932
v 0.951327 -0.999867 0.309105
v 0.613233 -0.779602 0.190932
v 0.587952 -0.999867 0.809247
v 0.388779 -0.779678 0.499869
v 0.000000 -0.999867 1.000284
v 0.025605 -0.779801 0.617874
v -0.587952 -0.999867 0.809247
v -0.337572 -0.779924 0.499869
v -0.951327 -0.999867 0.309105
v -0.562026 -0.780000 0.190932
v -0.951327 -0.999867 -0.309105
v -0.562026 -0.780000 -0.190935
v -0.587952 -0.999867 -0.809247
v -0.337572 -0.779924 -0.499869
v 0.000000 -0.997503 -0.895341
v 0.633102 -0.997503 -0.633102
v 0.895341 -0.997503 -0.000000
v 0.633102 -0.997503 0.633102
v 0.000000 -0.997503 0.895341
v -0.633102 -0.997503 0.633102
v -0.895341 -0.997503 -0.000000
v -0.633102 -0.997503 -0.633102
v 0.000000 -0.601933 -0.676098
v 0.478074 -0.601933 -0.478074
v 0.676098 -0.601933 -0.000000
v 0.478074 -0.601933 0.478074
v 0.000000 -0.601933 0.676098
v -0.478074 -0.601933 0.478074
v -0.676098 -0.601933 -0.000000
v -0.478074 -0.601933 -0.478074
v 0.565692 0.497099 -0.565692
v 0.000000 0.497098 -0.800010
v 0.800010 0.497099 -0.000000
v 0.565692 0.497099 0.565692
v 0.000000 0.497099 0.800010
v -0.565692 0.497099 0.565692
v -0.800010 0.497099 -0.000000
v -0.565692 0.497099 -0.565692
v -0.000264 1.033224 -0.001092
v 0.000000 -0.599572 -1.991136
v 0.007506 -0.635277 -2.657268
v 1.910214 -0.635277 -1.869141
v 1.407945 -0.599572 -1.407945
v 2.764230 -0.616839 -0.059829
v 1.991136 -0.599572 -0.000000
v 1.976103 -0.616838 1.842882
v 1.407945 -0.599572 1.407945
v 0.000000 -0.606919 2.690838
v 0.000000 -0.599572 1.991136
v -1.880916 -0.632548 1.832772
v -1.407945 -0.599572 1.407945
v -2.669043 -0.632548 -0.069936
v -1.991136 -0.599572 -0.000000
v -1.902711 -0.606919 -1.902711
v -1.407945 -0.599572 -1.407945
v -1.644708 0.108419 -0.792918
v -1.994727 0.096323 -0.969693
v -0.690501 0.099861 -2.063673
v -0.603156 0.108419 -1.723794
v 0.966609 0.099861 -1.970688
v 0.791562 0.108419 -1.645533
v 2.091942 0.093130 -0.726081
v 1.722435 0.108419 -0.603981
v 1.998960 0.093130 0.931029
v 1.644177 0.108419 0.790734
v 0.642342 0.090480 2.113065
v 0.602625 0.108419 1.721610
v -1.014768 0.090480 2.020080
v -0.792090 0.108419 1.643352
v -2.087709 0.096323 0.687417
v -1.722966 0.108419 0.601800
v 1.823760 -0.650052 -1.782687
v 0.007506 -0.650052 -2.535006
v 2.641965 -0.631613 -0.059829
v 1.889649 -0.631613 1.756428
v 0.000000 -0.621694 2.568573
v -1.794462 -0.647323 1.746318
v -2.546778 -0.647323 -0.069936
v -1.816257 -0.621694 -1.816257
v -0.652434 0.085228 -1.954899
v -1.890894 0.081690 -0.919698
v 0.916611 0.085228 -1.866858
v 1.983168 0.078497 -0.688014
v 1.895127 0.078497 0.881034
v 0.604275 0.075847 2.004291
v -0.964770 0.075847 1.916250
v -1.978938 0.081691 0.649350
vn 0.1624 0.8503 -0.5006
vn 0.1625 0.8504 -0.5003
vn 0.1626 0.8505 -0.5003
vn 0.4371 0.8414 -0.3177
vn 0.4371 0.8415 -0.3176
vn 0.4371 0.8415 -0.3175
vn 0.5459 0.8379 -0.0000
vn 0.4371 0.8415 0.3175
vn 0.1626 0.8505 0.5003
vn -0.1574 0.8606 0.4844
vn -0.4017 0.8680 0.2918
vn -0.4918 0.8707 -0.0000
vn -0.4019 0.8680 -0.2918
vn -0.4017 0.8680 -0.2918
vn -0.1577 0.8604 -0.4845
vn -0.1574 0.8605 -0.4844
vn -0.1574 0.8606 -0.4844
vn -0.0000 -1.0000 -0.0000
vn 0.4371 0.8414 -0.3178
vn 0.4371 0.8414 0.3178
vn 0.1624 0.8503 0.5006
vn -0.1577 0.8604 0.4846
vn -0.4017 0.8680 0.2919
vn -0.4019 0.8679 0.2918
vn -0.4019 0.8679 -0.2918
vn -0.1577 0.8604 -0.4846
vn -0.7112 -0.6802 0.1774
vn -0.7220 -0.6703 0.1717
vn -0.4488 0.8933 -0.0252
vn -0.3406 0.4558 -0.8223
vn -0.8223 0.4558 -0.3406
vn -0.8223 0.4558 0.3406
vn -0.3406 0.4558 0.8223
vn 0.3406 0.4558 0.8223
vn 0.8223 0.4558 0.3406
vn 0.8223 0.4558 -0.3406
vn 0.3406 0.4558 -0.8223
vn -0.1897 0.8380 -0.5117
vn -0.4936 0.8453 -0.2044
vn -0.2381 0.8345 0.4969
vn 0.4878 0.8493 0.2020
vn -0.5113 0.8329 0.2118
vn 0.2044 0.8453 0.4936
vn 0.4789 0.8551 -0.1984
vn 0.5591 -0.7853 0.2661
vn 0.1979 -0.9527 0.2304
vn 0.2604 -0.7329 0.6285
vn 0.2336 -0.7245 -0.6485
vn 0.0518 -0.9474 -0.3159
vn 0.3366 0.8927 -0.2995
vn -0.0250 0.8951 0.4453
vn -0.1893 -0.7297 -0.6571
vn 0.0496 -0.9916 -0.1198
vn 0.1214 -0.9915 -0.0471
vn 0.1204 -0.9916 -0.0467
vn 0.1198 -0.9917 -0.0465
vn 0.1198 -0.9916 0.0496
vn 0.0470 -0.9915 0.1215
vn 0.0467 -0.9916 0.1205
vn 0.0464 -0.9917 0.1198
vn -0.0435 -0.9911 0.1259
vn -0.1198 -0.9916 0.0496
vn -0.1098 -0.9922 -0.0598
vn -0.0626 -0.9908 -0.1197
vn -0.0840 -0.9910 -0.1039
vn 0.0076 -0.9907 -0.1359
vn 0.0997 -0.9904 -0.0958
vn 0.1359 -0.9907 0.0076
vn 0.0906 -0.9907 0.1018
vn 0.0905 -0.9907 0.1016
vn -0.0076 -0.9907 0.1359
vn -0.1054 -0.9912 0.0798
vn -0.1359 -0.9907 -0.0076
vn 0.2105 0.8351 -0.5083
vn -0.0380 -0.9950 0.0918
vn -0.0462 -0.9984 0.0326
vn -0.0511 -0.9985 -0.0212
vn -0.0159 -0.9991 -0.0383
vn 0.0516 -0.9953 -0.0815
vn 0.0902 -0.9952 -0.0374
vn 0.0485 -0.9988 0.0056
vn 0.0385 -0.9949 0.0929
vn 0.0732 -0.9938 0.0841
vn -0.0057 -0.9949 0.1010
vn -0.0897 -0.9931 0.0754
vn -0.1161 -0.9932 -0.0065
vn -0.0966 -0.9888 -0.1134
vn 0.0064 -0.9934 -0.1145
vn 0.0895 -0.9931 -0.0763
vn 0.1049 -0.9945 0.0059
vn -0.2044 0.8453 -0.4936
vn -0.5016 0.8422 -0.1980
vn -0.2044 0.8453 0.4936
vn -0.2922 0.8918 -0.3455
vn 0.2166 0.8416 0.4948
vn 0.4819 0.8439 -0.2360
vn -0.3465 0.8944 0.2829
vn 0.4492 0.8931 0.0252
vn 0.1221 -0.9914 -0.0474
vn 0.0473 -0.9914 0.1221
vn -0.0412 -0.9919 0.1199
vn -0.1197 -0.9907 -0.0646
vn -0.0586 -0.9921 -0.1110
vn -0.0877 -0.9903 -0.1077
vn 0.0969 -0.9909 -0.0930
vn -0.1118 -0.9900 0.0857
vn -0.0880 -0.9955 0.0365
vn -0.0280 -0.9982 -0.0530
vn 0.0159 -0.9991 -0.0383
vn 0.0814 -0.9961 0.0337
vn 0.0042 -0.9987 0.0500
vn 0.0685 -0.9947 0.0767
vn -0.0715 -0.9954 0.0639
vn -0.0843 -0.9920 -0.0944
vn 0.0778 -0.9945 -0.0695
vt 0.922447 0.000000
vt 0.952054 0.106546
vt 0.928723 0.106246
vt 0.936858 0.000126
vt 0.959153 0.107031
vt 0.304908 0.977706
vt 0.336192 0.876144
vt 0.321034 0.983212
vt 0.353745 0.878246
vt 0.349454 0.986556
vt 0.372187 0.878246
vt 0.379314 0.986461
vt 0.384473 0.876144
vt 0.399207 0.982963
vt 0.385910 0.872744
vt 0.401535 0.977399
vt 0.879977 0.000581
vt 0.871810 0.106546
vt 0.859966 0.107031
vt 0.887292 0.000282
vt 0.898073 0.106246
vt 0.903515 0.000060
vt 0.906077 0.160018
vt 0.934574 0.168841
vt 0.906077 0.265014
vt 0.941244 0.000389
vt 0.326231 0.872744
vt 0.952187 0.194346
vt 0.952187 0.226792
vt 0.934574 0.253785
vt 0.877579 0.256191
vt 0.877579 0.171247
vt 0.859966 0.230686
vt 0.859966 0.198240
vt 0.598925 0.409831
vt 0.810484 0.000000
vt 0.634082 0.418296
vt 0.533164 0.939049
vt 0.509104 0.999402
vt 0.451017 0.975599
vt 0.881186 0.773200
vt 0.911134 0.964561
vt 0.877047 0.964561
vt 0.862936 0.773501
vt 0.852879 0.964960
vt 0.468544 0.873195
vt 0.509104 0.914647
vt 0.475078 0.915245
vt 0.907371 0.527748
vt 0.939757 0.711789
vt 0.920191 0.717745
vt 0.882036 0.529611
vt 0.886641 0.720213
vt 0.860982 0.527748
vt 0.858760 0.717745
vt 0.852879 0.711789
vt 0.906926 0.773200
vt 0.935173 0.964960
vt 0.374625 0.536142
vt 0.420439 0.000583
vt 0.477211 0.545422
vt 0.368443 0.003215
vt 0.390006 0.001915
vt 0.198721 0.558196
vt 0.217603 0.011578
vt 0.255426 0.560670
vt 0.092827 0.554600
vt 0.145243 0.006054
vt 0.169626 0.011953
vt 0.176703 0.654203
vt 0.242722 0.637290
vt 0.247059 0.733692
vt 0.199599 0.014241
vt 0.035467 0.806872
vt 0.090381 0.675196
vt 0.217251 0.738292
vt 0.010814 0.534760
vt 0.140732 0.000000
vt 0.647980 0.990082
vt 0.598925 0.523249
vt 0.734548 0.970531
vt 0.784622 0.458392
vt 0.810484 0.470263
vt 0.797869 0.944253
vt 0.371888 0.801834
vt 0.324014 0.674653
vt 0.439593 0.627688
vt 0.712837 0.437901
vt 0.544097 0.550893
vt 0.549443 0.543460
vt 0.004505 0.824557
vt 0.070334 0.900854
vt 0.000000 0.825025
vt 0.015341 0.541731
vt 0.093628 0.560670
vt 0.078337 0.649404
vt 0.001597 0.718391
vt 0.077204 0.641787
vt 0.173243 0.661557
vt 0.240402 0.737434
vt 0.240475 0.832587
vt 0.247059 0.833690
vt 0.377212 0.543282
vt 0.475147 0.552765
vt 0.636096 0.426245
vt 0.710833 0.444762
vt 0.778803 0.464163
vt 0.364078 0.815437
vt 0.304908 0.755946
vt 0.308580 0.755027
vt 0.308580 0.672545
vt 0.304908 0.668835
vt 0.652342 0.995175
vt 0.734687 0.976631
vt 0.367726 0.612608
vt 0.447520 0.609147
vt 0.443893 0.615822
vt 0.503654 0.677701
vt 0.497005 0.680975
vt 0.503654 0.764811
vt 0.497005 0.763457
vt 0.441914 0.000000
vt 0.087528 0.865691
vt 0.168146 0.902291
vt 0.071643 0.896774
vt 0.006030 0.722768
vt 0.036649 0.727966
vt 0.165189 0.679473
vt 0.216069 0.817197
vt 0.162336 0.869968
vt 0.439593 0.804691
vt 0.440245 0.818651
vt 0.324014 0.747971
vt 0.999589 0.854227
vt 0.986341 0.935021
vt 0.984655 0.848523
vt 1.000000 0.787272
vt 0.985118 0.773199
vt 0.487467 0.681551
vt 0.487467 0.754868
vt 0.533164 0.974155
vt 0.475078 1.000000
vt 0.451017 0.940492
vt 0.494238 0.872744
vt 0.922145 0.523250
vt 0.856542 0.523250
vt 0.925079 0.773501
vt 0.304908 0.552765
vt 0.221805 0.613657
vt 0.000000 0.524112
vt 0.803397 0.923791
vt 0.598925 0.990582
vt 0.371888 0.624830
vt 0.363429 0.819757
vt 0.367078 0.605752
vt 1.000000 0.924524
s 1
usemtl Material.002
f 2/1/1 3/2/2 1/3/3
f 4/4/4 5/5/5 3/2/6
f 5/6/7 8/7/7 7/8/7
f 7/8/8 10/9/8 9/10/8
f 9/10/9 12/11/9 11/12/9
f 11/12/10 14/13/10 13/14/10
f 13/14/11 16/15/11 15/16/11
f 16/17/12 17/18/12 15/19/12
f 18/20/13 19/21/14 17/18/14
f 20/22/15 1/3/16 19/21/17
f 17/23/18 19/24/18 7/25/18
f 2/1/1 4/4/1 3/2/2
f 4/4/4 6/26/19 5/5/5
f 5/6/7 6/27/7 8/7/7
f 7/8/20 8/7/20 10/9/20
f 9/10/21 10/9/21 12/11/21
f 11/12/22 12/11/22 14/13/22
f 13/14/23 14/13/24 16/15/24
f 16/17/12 18/20/12 17/18/12
f 18/20/13 20/22/25 19/21/14
f 20/22/15 2/1/26 1/3/16
f 19/24/18 1/28/18 3/29/18
f 3/29/18 5/30/18 19/24/18
f 5/30/18 7/25/18 19/24/18
f 7/25/18 9/31/18 15/32/18
f 9/31/18 11/33/18 15/32/18
f 11/33/18 13/34/18 15/32/18
f 15/32/18 17/23/18 7/25/18
f 76/35/27 45/36/28 63/37/29
f 28/38/18 22/39/18 24/40/18
f 36/41/30 21/42/30 28/43/30
f 35/44/31 28/43/31 27/45/31
f 34/46/32 27/47/32 26/48/32
f 33/49/33 26/50/33 25/51/33
f 32/52/34 25/51/34 24/53/34
f 31/54/35 24/53/35 23/55/35
f 22/56/36 31/54/36 23/55/36
f 29/57/37 22/58/37 21/42/37
f 60/59/38 38/60/38 47/61/38
f 60/59/39 43/62/39 44/63/39
f 54/64/40 42/65/40 56/66/40
f 52/67/41 39/68/41 40/69/41
f 56/70/42 43/71/42 58/72/42
f 54/64/43 40/69/43 41/73/43
f 51/74/18 55/75/18 59/76/18
f 50/77/44 37/78/44 39/68/44
f 70/79/45 45/80/46 72/81/47
f 66/82/48 45/36/49 68/83/50
f 72/81/47 45/80/46 74/84/51
f 67/85/18 71/86/18 75/87/18
f 64/88/52 45/36/49 66/82/48
f 78/89/53 47/61/53 48/90/53
f 80/91/54 48/92/55 50/93/56
f 80/94/57 52/67/57 81/95/57
f 82/96/58 52/97/59 54/98/60
f 82/96/61 56/70/61 83/99/61
f 83/99/62 58/72/62 84/100/62
f 85/101/63 58/72/63 60/102/63
f 85/103/64 47/61/64 79/104/64
f 87/105/65 64/88/65 86/106/65
f 86/106/66 66/82/66 88/107/66
f 88/108/67 68/109/67 89/110/67
f 90/111/68 68/109/68 70/112/68
f 90/113/69 72/81/69 91/114/70
f 91/115/71 74/116/71 92/117/71
f 92/117/72 76/118/72 93/119/72
f 93/119/73 63/120/73 87/121/73
f 47/61/74 37/122/74 48/90/74
f 49/123/75 79/124/75 78/125/75
f 51/74/76 78/125/76 80/91/76
f 51/74/77 81/126/77 53/127/77
f 53/127/78 82/96/78 55/75/78
f 57/128/79 82/96/79 83/99/79
f 59/76/80 83/99/80 84/100/80
f 61/129/81 84/100/81 85/101/81
f 61/129/82 79/124/82 46/130/82
f 65/131/83 87/121/83 86/132/83
f 67/85/84 86/132/84 88/108/84
f 69/133/85 88/108/85 89/110/85
f 69/133/86 90/111/86 71/86/86
f 73/134/87 90/135/87 91/136/87
f 75/137/88 91/136/88 92/138/88
f 77/139/89 92/117/89 93/119/89
f 62/140/90 93/119/90 87/121/90
f 28/38/18 21/141/18 22/39/18
f 22/39/18 23/142/18 24/40/18
f 24/40/18 25/143/18 26/48/18
f 26/48/18 27/47/18 24/40/18
f 27/47/18 28/38/18 24/40/18
f 36/41/30 29/57/30 21/42/30
f 35/44/31 36/41/31 28/43/31
f 34/46/32 35/144/32 27/47/32
f 33/49/33 34/145/33 26/50/33
f 32/52/34 33/49/34 25/51/34
f 31/54/35 32/52/35 24/53/35
f 22/56/36 30/146/36 31/54/36
f 29/57/37 30/147/37 22/58/37
f 60/59/91 44/63/91 38/60/91
f 60/59/92 58/148/92 43/62/92
f 54/64/93 41/73/93 42/65/93
f 52/67/41 50/77/41 39/68/41
f 64/88/52 63/37/94 45/36/49
f 56/70/42 42/149/42 43/71/42
f 54/64/95 52/67/95 40/69/95
f 46/130/18 49/123/18 51/74/18
f 51/74/18 53/127/18 55/75/18
f 55/75/18 57/128/18 59/76/18
f 59/76/18 61/129/18 46/130/18
f 46/130/18 51/74/18 59/76/18
f 50/77/96 48/150/96 37/78/96
f 76/151/27 74/84/97 45/80/28
f 70/79/45 68/152/98 45/80/46
f 62/140/18 65/131/18 67/85/18
f 67/85/18 69/133/18 71/86/18
f 71/86/18 73/153/18 75/87/18
f 75/87/18 77/139/18 62/140/18
f 62/140/18 67/85/18 75/87/18
f 78/89/53 79/104/53 47/61/53
f 80/91/54 78/125/99 48/92/55
f 80/94/57 50/77/57 52/67/57
f 82/96/58 81/126/100 52/97/59
f 82/96/101 54/98/101 56/70/101
f 83/99/62 56/70/62 58/72/62
f 85/101/102 84/100/102 58/72/102
f 85/103/103 60/59/103 47/61/103
f 87/105/104 63/37/104 64/88/104
f 86/106/66 64/88/66 66/82/66
f 88/108/105 66/154/105 68/109/105
f 90/111/68 89/110/68 68/109/68
f 90/113/69 70/79/69 72/81/69
f 91/115/71 72/155/71 74/116/71
f 92/117/106 74/116/106 76/118/106
f 93/119/73 76/118/73 63/120/73
f 47/61/74 38/60/74 37/122/74
f 49/123/75 46/130/75 79/124/75
f 51/74/107 49/123/107 78/125/107
f 51/74/77 80/91/77 81/126/77
f 53/127/108 81/126/108 82/96/108
f 57/128/109 55/75/109 82/96/109
f 59/76/80 57/128/80 83/99/80
f 61/129/110 59/76/110 84/100/110
f 61/129/111 85/101/111 79/124/111
f 65/131/112 62/140/112 87/121/112
f 67/85/84 65/131/84 86/132/84
f 69/133/113 67/85/113 88/108/113
f 69/133/86 89/110/86 90/111/86
f 73/134/114 71/156/114 90/135/114
f 75/137/88 73/134/88 91/136/88
f 77/139/115 75/87/115 92/117/115
f 62/140/90 77/139/90 93/119/90
